<svg xmlns="http://www.w3.org/2000/svg" fill-rule="evenodd" clip-rule="evenodd" image-rendering="optimizeQuality" shape-rendering="geometricPrecision" text-rendering="geometricPrecision" viewBox="0 0 4335 4335" id="Autonomous">
  <path d="M2398 3401c-28,0 -51,-23 -51,-51l0 -159c0,-28 23,-51 51,-51 28,0 50,23 50,51l0 159c0,28 -22,51 -50,51zm388 831c-8,-20 -13,-42 -13,-65l0 -296 -1211 0 0 296c0,23 -5,45 -14,65l1238 0zm692 -361l0 296c0,23 -5,45 -13,65l342 0c28,0 51,23 51,51 0,28 -24,50 -52,50l-495 0 -371 0 -1545 0 -371 0 -495 0c-28,0 -51,-22 -51,-50 0,-28 23,-51 51,-51l341 0c-8,-20 -13,-42 -13,-65l0 -296 -68 0c-216,0 -391,-176 -391,-392l0 -402c0,-125 59,-237 150,-309 -91,-36 -156,-126 -156,-231 0,-137 111,-249 248,-249l245 0 147 -541c47,-172 136,-208 203,-208l90 0 0 -311 -237 0c-22,76 -91,131 -174,131 -99,0 -181,-82 -181,-181 0,-100 82,-181 181,-181 83,0 152,55 174,130l288 0 1 0 1 0 1 0 2 0 1 0 1 0 2 1 1 0 1 0 1 0 1 1 2 0 1 0 1 1 1 0 1 1 0 0 1 0 2 1 0 0 1 0 0 0 1 1 1 1 1 0 1 1 1 1 1 0 1 1 1 1 0 0 1 0 1 1 1 1 1 1 0 1 1 1 0 0 1 0 1 1 1 1 0 0 0 1 0 0 1 1 1 1 1 1 0 0 0 1 0 0 1 1 0 0 1 1 0 0 0 1 1 2 0 0 0 1 0 0 1 1 0 0 0 1 0 0 1 1 0 0 0 1 0 0 1 1 0 0 0 2 0 0 0 1 0 0 1 1 0 0 0 1 0 0 0 1 0 0 1 2 0 0 0 1 0 0 0 1 0 0 0 1 0 0 0 2 0 0 0 1 0 0 0 1 0 0 0 2 0 0 0 361 691 0 0 -604c-54,-21 -92,-72 -92,-133 0,-79 64,-142 142,-142 79,0 143,63 143,142 0,61 -38,112 -92,133l0 604 691 0 0 -348c-1,-5 -2,-9 -2,-13 0,-28 23,-51 51,-51l1 0 286 0c22,-75 92,-130 174,-130 100,0 181,81 181,181 0,99 -81,181 -181,181 -82,0 -152,-55 -174,-131l-235 0 0 311 89 0c67,0 156,36 203,208l147 541 246 0c137,0 248,112 248,249 0,105 -65,195 -157,231 92,72 151,184 151,309l0 402c1,216 -175,392 -391,392l-68 0zm-603 0l0 297c0,32 23,59 54,64l393 0c31,-5 54,-32 54,-64l0 -297 -501 0zm-1917 0l0 297c0,32 24,59 55,64l392 0c31,-5 55,-32 55,-64l0 -297 -502 0zm2001 -2231l0 0 -791 0 -1 0 0 0 -791 0 -1 0 -140 0c-46,0 -81,45 -106,133l-155 573c-1,4 -2,9 -3,13l-89 325 159 0 231 -854c6,-22 27,-37 49,-37l1693 0c22,0 43,15 49,37l231 854 158 0 -247 -911c-24,-88 -59,-133 -106,-133l-139 0 -1 0zm-2045 -542c-44,0 -79,36 -79,80 0,44 35,79 79,79 44,0 80,-35 80,-79 0,-44 -36,-80 -80,-80zm2505 0c-44,0 -80,36 -80,80 0,44 36,79 80,79 44,0 79,-35 79,-79 0,-44 -35,-80 -79,-80zm-681 -725c-15,0 -30,-6 -39,-19 -131,-160 -325,-251 -532,-251 -206,0 -400,91 -531,251 -18,22 -50,25 -71,7 -22,-18 -24,-50 -7,-71 151,-184 373,-288 609,-288 237,0 459,104 610,288 17,22 14,53 -7,71 -9,8 -21,12 -32,12zm-1037 104c-11,0 -22,-3 -31,-11 -22,-17 -26,-49 -8,-71 122,-157 307,-247 505,-247 199,0 384,90 506,247 17,22 14,54 -8,71 -22,17 -54,14 -71,-8 -103,-132 -259,-209 -427,-209 -167,0 -323,77 -426,209 -9,12 -24,19 -40,19zm824 108c-17,0 -32,-7 -42,-21 -73,-101 -191,-162 -316,-162 -125,0 -242,61 -315,162 -16,23 -48,28 -71,12 -23,-16 -28,-48 -12,-71 91,-129 241,-206 398,-206 158,0 308,77 399,206 16,23 11,54 -12,71 -8,7 -19,9 -29,9zm-115 115c-17,0 -34,-9 -44,-25 -40,-71 -116,-115 -199,-115 -82,0 -158,44 -198,115 -15,25 -45,32 -70,19 -24,-15 -32,-45 -18,-70 59,-102 169,-166 286,-166 118,0 228,64 287,166 15,25 6,55 -18,70 -8,4 -17,6 -26,6zm-243 61c-22,0 -40,19 -40,41 0,22 18,41 40,41 22,0 41,-19 41,-41 0,-22 -19,-41 -41,-41zm-1378 2025c-160,0 -290,130 -290,290l0 402c0,160 130,290 290,290l119 0 603 0 1313 0 603 0 119 0c160,0 290,-130 290,-290l0 -402c0,-160 -130,-290 -290,-290l-27 0 -13 0 -251 0 -2175 0 -264 0 -27 0zm-12 -102l80 -294 -217 0c-81,0 -147,66 -147,147 0,81 66,147 147,147l137 0zm2700 -294l80 294 138 0c81,0 147,-66 147,-147 0,-81 -66,-147 -147,-147l-218 0zm-2117 -496l-214 790 2042 0 -214 -790 -1614 0zm-320 1699c-170,0 -307,-138 -307,-306 0,-169 138,-306 307,-306 168,0 306,137 306,306 1,168 -137,306 -306,306zm0 -512c-114,0 -205,92 -205,205 0,113 92,205 205,205 112,0 204,-93 204,-205 1,-113 -91,-205 -204,-205zm2255 512c-169,0 -306,-138 -306,-306 0,-169 138,-306 306,-306 169,0 307,137 307,306 0,168 -138,306 -307,306zm0 -512c-113,0 -204,92 -204,205 0,113 92,205 204,205 114,0 205,-93 205,-205 0,-113 -92,-205 -205,-205zm-604 482l-1090 0c-28,0 -51,-23 -51,-51l0 -482c0,-27 23,-50 51,-50l1090 0c28,0 51,23 51,50l0 482c0,28 -22,51 -51,51zm-1040 -102l989 0 0 -380 -989 0 0 380zm243 -60c-28,0 -51,-23 -51,-51l0 -159c0,-28 23,-51 51,-51 28,0 51,23 51,51l0 159c0,28 -23,51 -51,51zm252 0c-28,0 -50,-23 -50,-51l0 -159c0,-28 22,-51 50,-51 28,0 51,23 51,51l0 159c0,28 -23,51 -51,51z" fill="#ffffff" class="color000000 svgShape"></path>
</svg>
